<?xml version="1.0" standalone="no"?>
<!DOCTYPE svg PUBLIC "-//W3C//DTD SVG 20010904//EN"
 "http://www.w3.org/TR/2001/REC-SVG-20010904/DTD/svg10.dtd">
<svg version="1.0" xmlns="http://www.w3.org/2000/svg"
 width="512.000000pt" height="512.000000pt" viewBox="0 0 512.000000 512.000000"
 preserveAspectRatio="xMidYMid meet">

<g transform="translate(0.000000,512.000000) scale(0.100000,-0.100000)"
fill="#000000" stroke="none">
<path d="M1626 4934 c-64 -20 -137 -93 -159 -159 -10 -28 -17 -80 -17 -121 0
-62 -3 -77 -24 -100 -18 -21 -32 -28 -61 -28 -51 0 -80 34 -88 103 -16 137
-119 231 -252 231 -99 0 -185 -55 -231 -146 -18 -37 -19 -74 -24 -939 -3 -495
-9 -908 -14 -918 -21 -43 -94 -50 -131 -12 l-25 24 0 611 0 610 -27 -6 c-105
-25 -218 -94 -281 -169 -47 -57 -90 -144 -107 -216 -22 -95 -22 -1064 0 -1177
30 -150 73 -217 436 -677 182 -231 349 -450 371 -487 22 -37 51 -100 65 -140
47 -135 52 -195 53 -606 l0 -384 29 -29 29 -29 881 0 880 0 28 24 c27 23 28
29 31 129 l4 104 -169 6 c-395 14 -745 145 -1057 395 -610 490 -828 1335 -532
2065 94 232 231 432 418 612 143 138 267 227 433 309 391 195 775 242 1213
150 l33 -7 -3 224 c-3 250 -10 280 -78 347 -99 100 -243 104 -345 11 -51 -47
-73 -89 -85 -166 -12 -71 -40 -103 -90 -103 -65 0 -77 24 -83 175 -5 147 -16
181 -73 245 -91 100 -209 115 -326 41 -58 -37 -94 -97 -113 -187 -16 -78 -39
-104 -90 -104 -25 0 -40 8 -59 31 -25 29 -26 36 -26 152 0 101 -4 130 -21 167
-56 124 -187 184 -313 144z"/>
<path d="M2745 3833 c-22 -2 -89 -13 -148 -24 -504 -94 -940 -433 -1163 -904
-213 -451 -203 -982 27 -1424 245 -473 687 -790 1211 -867 150 -22 410 -15
551 16 646 138 1129 621 1267 1267 31 141 38 401 16 551 -77 524 -394 966
-867 1211 -271 141 -583 202 -894 174z m211 -187 c38 -32 39 -89 2 -121 -21
-18 -43 -23 -129 -29 -318 -22 -592 -142 -818 -360 -466 -450 -519 -1185 -122
-1700 57 -74 186 -198 264 -255 85 -62 238 -141 340 -175 131 -43 232 -60 367
-60 l125 -1 6 300 c4 248 9 309 23 354 10 30 78 189 151 355 73 166 139 319
146 341 10 30 14 174 16 586 l4 546 -66 18 c-100 28 -134 90 -82 150 30 36 69
35 185 -4 486 -163 845 -571 958 -1091 27 -121 27 -439 0 -560 -65 -301 -192
-537 -401 -745 -203 -204 -432 -329 -720 -396 -142 -32 -386 -37 -540 -11
-306 53 -573 191 -790 408 -200 200 -336 453 -397 737 -17 83 -21 136 -22 282
0 194 17 305 70 465 108 322 345 613 644 791 197 117 465 193 692 198 57 1 71
-2 94 -23z m179 -346 c25 -25 33 -142 13 -180 -28 -53 -97 -62 -138 -18 -16
18 -20 35 -20 98 0 78 7 98 45 119 26 15 75 5 100 -19z m-344 -86 c21 -22 24
-35 24 -99 0 -64 -3 -77 -24 -99 -31 -33 -85 -35 -118 -4 -20 19 -23 31 -23
104 0 77 2 84 26 103 37 29 85 27 115 -5z m-347 -165 c24 -19 26 -26 26 -102
0 -69 -3 -84 -22 -104 -31 -33 -87 -31 -119 3 -21 22 -24 35 -24 101 0 70 2
76 28 99 34 29 76 31 111 3z m682 -172 c22 -19 28 -34 32 -80 5 -68 -2 -101
-28 -127 -28 -28 -87 -27 -117 2 -20 19 -23 31 -23 100 0 70 3 82 25 103 31
32 75 32 111 2z m-362 -71 c43 -18 61 -67 53 -145 -5 -44 -12 -61 -32 -78 -35
-30 -79 -30 -110 2 -22 21 -25 33 -25 103 0 69 3 81 23 99 18 17 35 27 55 32
1 1 18 -5 36 -13z m-659 -101 c22 -21 25 -33 25 -103 0 -70 -3 -81 -24 -101
-13 -12 -37 -23 -53 -23 -68 -2 -98 45 -91 143 4 52 9 66 32 86 36 30 80 30
111 -2z m342 -87 c20 -19 23 -31 23 -100 0 -70 -3 -82 -25 -103 -53 -54 -133
-16 -142 67 -7 61 4 115 28 139 27 27 86 25 116 -3z m683 -168 c26 -26 33 -59
28 -127 -4 -46 -10 -61 -32 -80 -36 -30 -80 -30 -111 2 -22 21 -25 33 -25 101
0 66 3 81 22 101 28 30 89 32 118 3z m-345 -82 c20 -18 27 -35 32 -79 11 -110
-37 -174 -113 -149 -19 6 -39 20 -44 30 -13 25 -13 156 1 181 22 42 85 50 124
17z m-676 -94 c17 -22 21 -41 21 -101 0 -65 -3 -77 -25 -98 -36 -37 -86 -34
-119 6 -22 25 -26 41 -26 90 0 60 18 113 42 122 7 3 30 6 50 6 28 1 41 -5 57
-25z m344 -85 c13 -16 17 -39 17 -96 0 -86 -8 -106 -50 -123 -42 -17 -88 2
-106 46 -29 69 -8 175 38 194 33 14 80 4 101 -21z m338 -255 c21 -22 24 -35
24 -99 0 -64 -3 -77 -24 -99 -31 -33 -85 -35 -118 -4 -20 19 -23 31 -23 104 0
77 2 84 26 103 37 29 85 27 115 -5z m-708 -66 c39 -20 46 -40 47 -120 0 -65
-3 -81 -20 -98 -43 -43 -110 -34 -137 20 -16 32 -16 128 0 160 12 24 50 50 75
50 7 0 23 -5 35 -12z m361 -99 c24 -19 26 -26 26 -102 0 -69 -3 -84 -22 -104
-31 -33 -87 -31 -119 3 -21 22 -24 35 -24 101 0 70 2 76 28 99 34 29 76 31
111 3z m320 -243 c43 -18 61 -67 53 -145 -5 -44 -12 -61 -32 -78 -35 -30 -79
-30 -110 2 -22 21 -25 33 -25 103 0 69 3 81 23 99 18 17 35 27 55 32 1 1 18
-5 36 -13z"/>
<path d="M3498 2838 c-4 -480 -5 -518 -24 -583 -11 -38 -80 -203 -152 -365
-72 -163 -138 -322 -147 -355 -12 -46 -15 -117 -15 -313 l0 -254 38 7 c20 3
71 18 112 31 242 81 463 242 619 454 74 99 172 294 201 400 104 375 42 758
-173 1080 -89 134 -262 294 -419 389 l-37 22 -3 -513z"/>
<path d="M4162 952 l-93 -95 53 -54 52 -53 98 97 98 97 -52 53 c-29 29 -55 52
-58 52 -3 -1 -47 -44 -98 -97z"/>
<path d="M4397 722 l-97 -97 228 -228 c169 -168 234 -227 252 -227 33 0 170
137 170 170 0 18 -58 83 -228 252 l-227 228 -98 -98z"/>
</g>
</svg>
