<?xml version="1.0" standalone="no"?>
<!DOCTYPE svg PUBLIC "-//W3C//DTD SVG 20010904//EN"
 "http://www.w3.org/TR/2001/REC-SVG-20010904/DTD/svg10.dtd">
<svg version="1.0" xmlns="http://www.w3.org/2000/svg"
 width="512.000000pt" height="512.000000pt" viewBox="0 0 512.000000 512.000000"
 preserveAspectRatio="xMidYMid meet">

<g transform="translate(0.000000,512.000000) scale(0.100000,-0.100000)"
fill="#000000" stroke="none">
<path d="M2600 4617 c-60 -21 -77 -86 -36 -134 l24 -28 844 -5 843 -5 47 -28
c26 -15 59 -42 72 -60 59 -77 56 -25 56 -1024 0 -867 -1 -920 -19 -958 -25
-56 -67 -102 -115 -128 -40 -21 -53 -22 -441 -27 l-400 -5 -197 -133 -198
-132 0 90 c0 111 -15 153 -60 169 -22 7 -135 11 -334 11 l-301 0 0 153 c0 127
-4 165 -23 230 -68 237 -218 396 -426 452 l-67 18 3 596 c3 593 3 596 25 637
12 23 39 57 59 75 20 19 45 42 55 52 30 27 25 90 -7 116 -39 31 -81 26 -136
-14 -58 -43 -110 -111 -140 -185 -23 -55 -23 -57 -26 -666 l-3 -611 -62 -17
c-210 -59 -377 -239 -432 -466 -66 -277 8 -589 185 -783 32 -35 50 -64 50 -80
0 -23 -4 -25 -67 -29 -160 -13 -466 -100 -613 -175 -118 -60 -190 -126 -232
-211 l-33 -67 0 -346 0 -347 24 -26 c17 -18 35 -26 57 -26 93 0 94 6 94 397
l0 328 24 36 c47 69 159 129 351 188 115 35 321 81 365 81 l30 0 0 -62 c0 -58
2 -63 38 -97 44 -42 147 -95 212 -110 131 -30 289 11 398 104 41 35 42 38 42
96 0 47 4 61 17 66 20 8 209 -29 348 -68 190 -53 338 -129 382 -196 16 -24 19
-63 23 -369 l5 -342 24 -26 c50 -53 133 -25 147 49 3 17 4 177 2 356 l-3 324
-28 57 c-57 116 -212 220 -433 291 -138 45 -329 88 -416 95 -66 5 -68 6 -68
31 0 17 11 38 31 57 41 38 110 136 143 202 l26 52 284 0 284 0 4 -146 c3 -146
3 -146 31 -170 15 -13 40 -24 55 -24 18 0 110 55 282 170 l255 170 335 0 c184
0 364 5 400 11 91 14 161 49 229 114 78 74 118 156 132 267 6 52 9 407 7 963
-3 875 -4 880 -25 937 -49 128 -143 223 -270 271 -58 21 -62 22 -878 24 -624
2 -828 -1 -855 -10z m-645 -1752 c112 -54 197 -164 241 -311 25 -81 25 -273 0
-364 -55 -205 -180 -347 -339 -386 -146 -36 -290 32 -390 184 -94 141 -133
325 -105 495 33 202 134 340 291 398 82 30 223 23 302 -16z m-265 -1234 c75
-17 163 -12 253 15 15 5 17 -3 17 -80 l0 -86 -52 -27 c-43 -22 -66 -27 -123
-27 -57 0 -80 5 -122 27 l-53 27 0 86 c0 77 2 85 18 80 9 -3 37 -10 62 -15z"/>
<path d="M2221 4594 c-69 -87 54 -193 126 -109 49 56 10 135 -67 135 -30 0
-43 -6 -59 -26z"/>
<path d="M3018 4250 l-30 -30 4 -178 c3 -159 5 -181 25 -217 53 -100 136 -144
265 -145 l87 0 21 -66 c11 -36 20 -80 20 -98 -1 -49 -33 -107 -87 -158 -41
-38 -66 -51 -136 -73 -137 -41 -201 -102 -230 -215 l-14 -55 -64 -6 c-124 -10
-231 -85 -286 -198 -23 -46 -27 -71 -31 -166 -4 -106 -3 -112 20 -139 34 -40
91 -41 124 -2 21 24 24 37 24 109 1 155 62 227 195 227 52 0 55 -2 112 -58 63
-64 121 -92 248 -119 130 -28 335 1 482 67 204 93 381 279 457 481 59 157 71
354 32 504 -59 224 -226 398 -440 460 -80 23 -222 17 -288 -12 -102 -46 -169
-138 -186 -255 l-7 -53 -56 -3 c-48 -2 -61 1 -85 22 l-29 24 -5 172 c-5 166
-6 173 -29 191 -35 28 -77 24 -113 -11z m825 -270 c82 -40 169 -129 210 -214
81 -165 71 -383 -26 -571 -150 -291 -547 -452 -814 -330 -61 28 -93 71 -93
128 0 58 23 93 72 110 179 63 170 58 254 142 98 98 125 150 132 255 3 66 0 88
-32 186 -39 120 -45 192 -22 247 28 66 75 88 181 83 56 -2 85 -10 138 -36z"/>
<path d="M2260 4077 c-32 -16 -52 -59 -44 -92 3 -14 46 -70 95 -125 49 -54 89
-101 89 -104 0 -3 -15 -6 -34 -6 -80 0 -136 -50 -121 -108 8 -33 309 -370 342
-383 34 -12 69 -2 93 28 35 45 26 75 -42 154 -35 39 -78 89 -96 110 l-34 39
39 0 c79 0 135 52 120 112 -7 28 -284 344 -325 370 -32 21 -48 22 -82 5z"/>
<path d="M952 897 c-21 -22 -22 -33 -22 -188 0 -160 1 -166 23 -187 14 -13 36
-22 54 -22 81 0 93 28 93 210 0 183 -12 210 -94 210 -21 0 -40 -8 -54 -23z"/>
<path d="M2502 900 c-29 -27 -34 -65 -30 -218 3 -122 5 -132 27 -156 29 -31
90 -36 116 -9 29 29 35 61 35 193 0 132 -6 164 -35 193 -23 24 -86 22 -113 -3z"/>
</g>
</svg>
