<?xml version="1.0" encoding="UTF-8"?>
<svg version="1.1" xmlns="http://www.w3.org/2000/svg" width="303" height="141">
<path d="M0 0 C7.7963985 4.32623682 12.42086729 12.48598082 15.02612305 20.75927734 C16.0534746 25.05454889 16.14599278 29.2675619 16.1171875 33.66796875 C16.1162207 35.05230103 16.1162207 35.05230103 16.11523438 36.46459961 C15.98125125 42.56785495 15.17971363 47.21636727 11.7109375 52.390625 C10.13813143 55.03630949 10.56851125 57.46246576 10.7578125 60.44921875 C11.05495574 66.64677776 11.05495574 66.64677776 8.7421875 69.73046875 C5.16502876 72.25552198 2.99059394 72.41269402 -1.3828125 72.23046875 C-2.3728125 71.73546875 -2.3728125 71.73546875 -3.3828125 71.23046875 C-6.3528125 70.90046875 -9.3228125 70.57046875 -12.3828125 70.23046875 C-12.3828125 76.50046875 -12.3828125 82.77046875 -12.3828125 89.23046875 C-17.0028125 89.23046875 -21.6228125 89.23046875 -26.3828125 89.23046875 C-26.7128125 85.93046875 -27.0428125 82.63046875 -27.3828125 79.23046875 C-29.76218053 79.23046875 -32.14255077 79.26452925 -34.51953125 79.37109375 C-42.16479916 79.60659155 -47.78492021 79.1972997 -54.3828125 75.23046875 C-55.00285156 74.87210937 -55.62289062 74.51375 -56.26171875 74.14453125 C-57.9453125 73.10546875 -57.9453125 73.10546875 -60.3828125 71.23046875 C-60.3828125 70.57046875 -60.3828125 69.91046875 -60.3828125 69.23046875 C-57.60258382 70.32571035 -54.92198868 71.45916117 -52.2421875 72.7890625 C-48.04020621 74.59133017 -44.21026528 74.60731554 -39.6953125 74.48046875 C-38.94958984 74.4753125 -38.20386719 74.47015625 -37.43554688 74.46484375 C-33.9292671 74.41479872 -30.7560654 74.16521994 -27.3828125 73.23046875 C-27.3828125 72.57046875 -27.3828125 71.91046875 -27.3828125 71.23046875 C-33.9828125 71.23046875 -40.5828125 71.23046875 -47.3828125 71.23046875 C-47.3828125 66.28046875 -47.3828125 61.33046875 -47.3828125 56.23046875 C-43.34512498 55.22104687 -39.74511001 55.1178296 -35.6328125 55.16796875 C-33.2403125 55.18859375 -30.8478125 55.20921875 -28.3828125 55.23046875 C-28.0528125 49.29046875 -27.7228125 43.35046875 -27.3828125 37.23046875 C-22.4328125 37.23046875 -17.4828125 37.23046875 -12.3828125 37.23046875 C-11.8878125 44.65546875 -11.8878125 44.65546875 -11.3828125 52.23046875 C-10.83919468 39.31954549 -13.14983609 32.80815776 -20.796875 22.58984375 C-24.08975566 17.69107547 -24.73767412 14.12337264 -23.92578125 8.3828125 C-22.96084645 4.5577832 -20.92961066 2.20630115 -17.63671875 0.12890625 C-12.27862568 -2.00690208 -5.44399135 -1.75814147 0 0 Z M-20.3828125 5.23046875 C-22.00406085 8.87827755 -22.56802788 11.16548029 -21.8828125 15.10546875 C-19.27090006 20.546953 -15.74370077 25.3641077 -12.1953125 30.23046875 C-6.45052956 39.739075 -6.48101145 49.53283783 -8.3828125 60.23046875 C-7.5990625 59.42609375 -6.8153125 58.62171875 -6.0078125 57.79296875 C-3.07235204 55.26191852 -1.15169436 54.99764983 2.6796875 54.98046875 C6.49870263 54.79139412 6.49870263 54.79139412 9.3359375 52.390625 C14.70501228 43.01035191 14.92606684 31.78216099 12.3203125 21.43359375 C10.69980742 16.35601116 8.57204979 11.66276218 5.6171875 7.23046875 C4.9571875 7.23046875 4.2971875 7.23046875 3.6171875 7.23046875 C3.2871875 6.24046875 2.9571875 5.25046875 2.6171875 4.23046875 C-4.79444937 -0.02728009 -13.86519094 -1.12421227 -20.3828125 5.23046875 Z M-17.3828125 71.23046875 C-17.7128125 71.89046875 -18.0428125 72.55046875 -18.3828125 73.23046875 C-17.7228125 73.23046875 -17.0628125 73.23046875 -16.3828125 73.23046875 C-16.7128125 72.57046875 -17.0428125 71.91046875 -17.3828125 71.23046875 Z M-20.3828125 73.23046875 C-20.7128125 73.89046875 -21.0428125 74.55046875 -21.3828125 75.23046875 C-20.3928125 74.90046875 -19.4028125 74.57046875 -18.3828125 74.23046875 C-19.0428125 73.90046875 -19.7028125 73.57046875 -20.3828125 73.23046875 Z " fill="#229496" transform="translate(67.3828125,27.76953125)"/>
<path d="M0 0 C4.62 0 9.24 0 14 0 C13.67 1.32 13.34 2.64 13 4 C13 4.66 13 5.32 13 6 C13.61875 5.34 14.2375 4.68 14.875 4 C17 2 17 2 19 2 C19 1.34 19 0.68 19 0 C21.875 -0.1875 21.875 -0.1875 25 0 C27 3 27 3 26.8125 5.5625 C26 8 26 8 23 10 C20.03 9.505 20.03 9.505 17 9 C18.32 13.29 19.64 17.58 21 22 C21.99 22 22.98 22 24 22 C24.84416163 19.46148538 25.67547299 16.91989146 26.5 14.375 C26.73847656 13.66214844 26.97695312 12.94929688 27.22265625 12.21484375 C28.57381808 8.00693976 29.28250044 4.47763202 29 0 C32.08325358 -0.0582253 35.16636505 -0.09367134 38.25 -0.125 C39.55904297 -0.15013672 39.55904297 -0.15013672 40.89453125 -0.17578125 C41.73886719 -0.18222656 42.58320313 -0.18867187 43.453125 -0.1953125 C44.22817383 -0.20578613 45.00322266 -0.21625977 45.80175781 -0.22705078 C48.30161174 0.0311527 49.8721841 0.67835009 52 2 C54.4400904 5.83442777 54.16933415 9.38741772 53.52734375 13.72265625 C52.52747776 18.04059604 51.04042103 21.54281489 47.34814453 24.1796875 C41.90564689 27.06224206 37.5273299 27.47425177 31.4375 27.1875 C29.81134653 27.13454345 28.18503248 27.08628794 26.55859375 27.04296875 C25.78652588 27.02145752 25.01445801 26.99994629 24.21899414 26.9777832 C21.10297136 27.00898114 18.07989014 27.55556016 15 28 C12.1875 26.9375 12.1875 26.9375 10 25 C8.6875 21.8125 8.6875 21.8125 8 19 C7.67 21.64 7.34 24.28 7 27 C5.23086176 27.22226864 3.45955629 27.42733873 1.6875 27.625 C0.70136719 27.74101563 -0.28476563 27.85703125 -1.30078125 27.9765625 C-4 28 -4 28 -7 26 C-6.56880859 25.20142578 -6.56880859 25.20142578 -6.12890625 24.38671875 C-2.496353 16.70682243 -0.57211265 8.43866155 0 0 Z M40 5 C39.32844651 7.26949102 38.6626037 9.5403961 38 11.8125 C37.62875 13.07707031 37.2575 14.34164062 36.875 15.64453125 C35.87383491 18.90587415 35.87383491 18.90587415 36 22 C39.30901116 20.9730655 40.0219638 19.96077893 41.75 16.875 C43.31997664 12.84397889 43.22556434 9.28572244 43 5 C42.01 5 41.02 5 40 5 Z " fill="#187576" transform="translate(183,78)"/>
<path d="M0 0 C7.7963985 4.32623682 12.42086729 12.48598082 15.02612305 20.75927734 C16.0534746 25.05454889 16.14599278 29.2675619 16.1171875 33.66796875 C16.11654297 34.59085693 16.11589844 35.51374512 16.11523438 36.46459961 C15.98125125 42.56785495 15.17971363 47.21636727 11.7109375 52.390625 C10.13813143 55.03630949 10.56851125 57.46246576 10.7578125 60.44921875 C11.05495574 66.64677776 11.05495574 66.64677776 8.7421875 69.73046875 C5.16502876 72.25552198 2.99059394 72.41269402 -1.3828125 72.23046875 C-2.3728125 71.73546875 -2.3728125 71.73546875 -3.3828125 71.23046875 C-6.3528125 70.90046875 -9.3228125 70.57046875 -12.3828125 70.23046875 C-12.3828125 76.50046875 -12.3828125 82.77046875 -12.3828125 89.23046875 C-17.0028125 89.23046875 -21.6228125 89.23046875 -26.3828125 89.23046875 C-26.8778125 84.28046875 -26.8778125 84.28046875 -27.3828125 79.23046875 C-28.7028125 79.23046875 -30.0228125 79.23046875 -31.3828125 79.23046875 C-36.04947917 79.23046875 -40.71614583 79.23046875 -45.3828125 79.23046875 C-45.3828125 78.90046875 -45.3828125 78.57046875 -45.3828125 78.23046875 C-44.34382813 78.14410156 -43.30484375 78.05773437 -42.234375 77.96875 C-32.19928533 77.01101935 -23.18809023 75.70252728 -16.0078125 67.91796875 C-15.10335529 66.71031282 -14.22703544 65.48097398 -13.3828125 64.23046875 C-12.9703125 63.68132812 -12.5578125 63.1321875 -12.1328125 62.56640625 C-7.90520779 55.90205716 -9.05209632 47.80019476 -9.3828125 40.23046875 C-10.3728125 39.73546875 -10.3728125 39.73546875 -11.3828125 39.23046875 C-12.20703125 37.515625 -12.20703125 37.515625 -13.0703125 35.29296875 C-15.06558776 30.5720722 -17.73448875 26.68194067 -20.796875 22.58984375 C-24.08975566 17.69107547 -24.73767412 14.12337264 -23.92578125 8.3828125 C-22.96084645 4.5577832 -20.92961066 2.20630115 -17.63671875 0.12890625 C-12.27862568 -2.00690208 -5.44399135 -1.75814147 0 0 Z M-20.3828125 5.23046875 C-22.00406085 8.87827755 -22.56802788 11.16548029 -21.8828125 15.10546875 C-19.27090006 20.546953 -15.74370077 25.3641077 -12.1953125 30.23046875 C-6.45052956 39.739075 -6.48101145 49.53283783 -8.3828125 60.23046875 C-7.5990625 59.42609375 -6.8153125 58.62171875 -6.0078125 57.79296875 C-3.07235204 55.26191852 -1.15169436 54.99764983 2.6796875 54.98046875 C6.49870263 54.79139412 6.49870263 54.79139412 9.3359375 52.390625 C14.70501228 43.01035191 14.92606684 31.78216099 12.3203125 21.43359375 C10.69980742 16.35601116 8.57204979 11.66276218 5.6171875 7.23046875 C4.9571875 7.23046875 4.2971875 7.23046875 3.6171875 7.23046875 C3.2871875 6.24046875 2.9571875 5.25046875 2.6171875 4.23046875 C-4.79444937 -0.02728009 -13.86519094 -1.12421227 -20.3828125 5.23046875 Z M-17.3828125 71.23046875 C-17.7128125 71.89046875 -18.0428125 72.55046875 -18.3828125 73.23046875 C-17.7228125 73.23046875 -17.0628125 73.23046875 -16.3828125 73.23046875 C-16.7128125 72.57046875 -17.0428125 71.91046875 -17.3828125 71.23046875 Z M-20.3828125 73.23046875 C-20.7128125 73.89046875 -21.0428125 74.55046875 -21.3828125 75.23046875 C-20.3928125 74.90046875 -19.4028125 74.57046875 -18.3828125 74.23046875 C-19.0428125 73.90046875 -19.7028125 73.57046875 -20.3828125 73.23046875 Z " fill="#86C5C6" transform="translate(67.3828125,27.76953125)"/>
<path d="M0 0 C2.39621681 1.81531577 2.82208775 3.00001046 3.33984375 5.91015625 C3.76517329 11.79215251 1.92301166 15.51772706 -0.90234375 20.5703125 C-2.06275439 23.1389083 -2.23056435 24.65679894 -2.0625 27.4375 C-2 31 -2 31 -3.625 33.0625 C-6.91726885 34.36207981 -8.65099364 34.11633545 -12 33 C-14.12310418 30.76213343 -15.62497768 28.75004465 -17 26 C-18.175625 25.566875 -18.175625 25.566875 -19.375 25.125 C-22.48762863 23.7910163 -23.48675534 23.02648932 -25 20 C-25.7378695 13.67540431 -24.58428899 9.27101321 -21 4 C-14.93504059 -2.22887724 -7.8646797 -2.99831102 0 0 Z M-10 4 C-12.93128938 9.59609791 -15.37797442 14.5744349 -15 21 C-14.01 21 -13.02 21 -12 21 C-8.79421793 15.60845743 -7.93101933 10.15568076 -7 4 C-7.99 4 -8.98 4 -10 4 Z " fill="#20797B" transform="translate(106,79)"/>
<path d="M0 0 C0 0.66 0 1.32 0 2 C0.66 2 1.32 2 2 2 C3.31376014 8.43742467 2.55745901 12.81091726 -0.3125 18.6875 C-2.97093019 22.33053396 -5.71990929 24.5733031 -10 26 C-11.47586615 26.11687338 -12.95706612 26.17501742 -14.4375 26.1875 C-15.19933594 26.20167969 -15.96117187 26.21585938 -16.74609375 26.23046875 C-19.26743061 25.97265441 -20.84554456 25.31426476 -23 24 C-25.55486471 20.55093265 -25.35291034 17.16434201 -25 13 C-23.22277812 7.66833435 -20.97715299 3.88676315 -17 0 C-11.47087271 -2.3994326 -5.52377602 -2.76188801 0 0 Z M-9 3 C-13.33321199 8.17189819 -14.1100459 13.41902362 -15 20 C-14.01 20 -13.02 20 -12 20 C-8.92291196 14.06561592 -7.51263525 9.70126536 -8 3 C-8.33 3 -8.66 3 -9 3 Z " fill="#20797B" transform="translate(262,79)"/>
<path d="M0 0 C3.08325358 -0.0582253 6.16636505 -0.09367134 9.25 -0.125 C10.55904297 -0.15013672 10.55904297 -0.15013672 11.89453125 -0.17578125 C12.73886719 -0.18222656 13.58320313 -0.18867187 14.453125 -0.1953125 C15.22817383 -0.20578613 16.00322266 -0.21625977 16.80175781 -0.22705078 C19.25883539 0.02673444 20.87311542 0.77555848 23 2 C23.57120303 15.07420272 23.57120303 15.07420272 20 20 C16.26081453 23.37438688 13.88302691 25.13297906 8.8671875 25.09765625 C8.06152344 25.09443359 7.25585938 25.09121094 6.42578125 25.08789062 C5.58402344 25.07951172 4.74226562 25.07113281 3.875 25.0625 C3.02550781 25.05798828 2.17601562 25.05347656 1.30078125 25.04882812 C-0.79950909 25.03702874 -2.8997633 25.01909306 -5 25 C-4.04607414 19.86888299 -2.7018165 14.83872906 -1.37304688 9.79492188 C-0.49837994 6.38275967 0 3.54909242 0 0 Z M11 5 C10.32844651 7.26949102 9.6626037 9.5403961 9 11.8125 C8.62875 13.07707031 8.2575 14.34164062 7.875 15.64453125 C6.87383491 18.90587415 6.87383491 18.90587415 7 22 C10.30901116 20.9730655 11.0219638 19.96077893 12.75 16.875 C14.31997664 12.84397889 14.22556434 9.28572244 14 5 C13.01 5 12.02 5 11 5 Z " fill="#2A8081" transform="translate(212,78)"/>
<path d="M0 0 C1.75 1.5625 1.75 1.5625 2.6875 4.5 C2.75 7.5625 2.75 7.5625 1.5 9.375 C-0.25 10.5625 -0.25 10.5625 -3.25 11.5625 C-4.09565431 13.73056863 -4.09565431 13.73056863 -4.625 16.3125 C-5.9455759 20.99819823 -7.03762997 23.78412828 -11.25 26.5625 C-15.73694153 27.67129939 -19.75669976 27.93582506 -24.25 26.8125 C-26.25 25.5625 -26.25 25.5625 -28.25 22.5625 C-28.58790006 18.23013845 -27.90082587 14.60391588 -26.75 10.4375 C-25.77072758 6.87403646 -25.25 4.29858744 -25.25 0.5625 C-20.63 0.5625 -16.01 0.5625 -11.25 0.5625 C-11.25 3.5625 -11.25 3.5625 -12.67578125 5.85546875 C-14.46238126 8.92771144 -14.93700746 11.37155222 -15.4375 14.875 C-15.59605469 15.94363281 -15.75460938 17.01226562 -15.91796875 18.11328125 C-16.02753906 18.92152344 -16.13710937 19.72976562 -16.25 20.5625 C-15.26 20.2325 -14.27 19.9025 -13.25 19.5625 C-12.32858022 17.73644027 -12.32858022 17.73644027 -11.75 15.5 C-11.49992187 14.69175781 -11.24984375 13.88351563 -10.9921875 13.05078125 C-10.74726562 12.22964844 -10.50234375 11.40851563 -10.25 10.5625 C-8.06759541 3.27527549 -8.06759541 3.27527549 -4.8125 0.4375 C-2.25 -0.4375 -2.25 -0.4375 0 0 Z " fill="#227A7C" transform="translate(138.25,77.4375)"/>
<path d="M0 0 C1.27133789 0.00966797 1.27133789 0.00966797 2.56835938 0.01953125 C3.8899707 0.04466797 3.8899707 0.04466797 5.23828125 0.0703125 C6.57729492 0.08384766 6.57729492 0.08384766 7.94335938 0.09765625 C10.14610439 0.12121502 12.34830713 0.15410921 14.55078125 0.1953125 C13.55970982 8.98102679 13.55970982 8.98102679 11.55078125 12.1953125 C9.17578125 11.9453125 9.17578125 11.9453125 6.55078125 11.1953125 C5.23828125 9.1328125 5.23828125 9.1328125 4.55078125 7.1953125 C3.56078125 7.1953125 2.57078125 7.1953125 1.55078125 7.1953125 C-1.09394353 13.47806939 -1.09394353 13.47806939 -1.44921875 20.1953125 C2.27692278 19.07676664 2.27692278 19.07676664 4.55078125 16.1953125 C6.20078125 16.5253125 7.85078125 16.8553125 9.55078125 17.1953125 C9.55078125 21.1953125 9.55078125 21.1953125 7.61328125 23.8828125 C3.62734812 26.89259874 0.49175118 27.48288218 -4.44921875 27.1953125 C-8.37939071 25.95803614 -9.94661139 24.8762644 -12.38671875 21.5703125 C-13.78875203 17.11679503 -13.74093493 13.67741202 -12.44921875 9.1953125 C-9.61018526 3.80319133 -6.45212763 -0.08660574 0 0 Z " fill="#328586" transform="translate(166.44921875,77.8046875)"/>
<path d="M0 0 C0.99 0 1.98 0 3 0 C4.66666667 0 6.33333333 0 8 0 C9.12377697 3.30435084 8.89554742 5.0506862 7.5625 8.25 C7.13130859 9.30960938 7.13130859 9.30960938 6.69140625 10.390625 C6.46324219 10.92171875 6.23507812 11.4528125 6 12 C3.625 11.75 3.625 11.75 1 11 C-0.3125 8.9375 -0.3125 8.9375 -1 7 C-2.95656701 7.2082797 -2.95656701 7.2082797 -5 8 C-6.17047656 9.70250966 -6.17047656 9.70250966 -6.8125 11.8125 C-7.06644531 12.49957031 -7.32039063 13.18664062 -7.58203125 13.89453125 C-8.05333812 16.26868457 -7.75212833 17.72314894 -7 20 C-5.68 20 -4.36 20 -3 20 C-3 19.34 -3 18.68 -3 18 C-2.34 18 -1.68 18 -1 18 C-1 17.34 -1 16.68 -1 16 C0.32 16 1.64 16 3 16 C3.75 17.6875 3.75 17.6875 4 20 C2.24626427 22.83295772 0.63493006 24.6009011 -2.1875 26.375 C-7.70096828 27.60021517 -12.27240079 27.09297093 -17.0625 24.0625 C-19.83470544 19.68062688 -19.73066749 16.04972423 -19 11 C-17.56499693 6.77471319 -15.42894709 3.69113804 -11.8828125 0.90234375 C-8.12126017 -0.90039191 -4.0577119 -0.31428061 0 0 Z " fill="#227A7C" transform="translate(284,78)"/>
<path d="M0 0 C7.7963985 4.32623682 12.42086729 12.48598082 15.02612305 20.75927734 C16.05340432 25.05425506 16.14719433 29.26776717 16.1171875 33.66796875 C16.11436768 34.59013184 16.11154785 35.51229492 16.10864258 36.46240234 C15.92375171 44.22232 14.43026539 50.24772229 8.94921875 55.97265625 C8.50964844 56.38773438 8.07007813 56.8028125 7.6171875 57.23046875 C6.6271875 56.24046875 5.6371875 55.25046875 4.6171875 54.23046875 C5.6071875 54.23046875 6.5971875 54.23046875 7.6171875 54.23046875 C8.0503125 53.11671875 8.0503125 53.11671875 8.4921875 51.98046875 C9.6171875 49.23046875 9.6171875 49.23046875 10.6796875 47.29296875 C14.84143587 38.13712233 13.12375947 25.99599487 9.734375 16.84765625 C7.32211829 11.0924296 5.04710085 6.6398185 -0.5078125 3.41796875 C-6.01036321 1.34265329 -11.87002898 1.34052459 -17.3828125 3.29296875 C-20.24465789 6.06538147 -20.78666936 8.32241925 -21.3828125 12.23046875 C-20.19882513 19.03839611 -15.18625753 24.75717271 -11.1953125 30.23046875 C-5.37394069 39.86584278 -5.6454155 49.37173749 -7.3828125 60.23046875 C-7.41826547 61.8967583 -7.43329438 63.56456678 -7.3828125 65.23046875 C-8.3728125 64.24046875 -8.3728125 64.24046875 -9.3828125 63.23046875 C-10.0428125 64.88046875 -10.7028125 66.53046875 -11.3828125 68.23046875 C-12.0428125 68.23046875 -12.7028125 68.23046875 -13.3828125 68.23046875 C-13.3828125 68.89046875 -13.3828125 69.55046875 -13.3828125 70.23046875 C-14.0428125 70.23046875 -14.7028125 70.23046875 -15.3828125 70.23046875 C-15.7128125 70.89046875 -16.0428125 71.55046875 -16.3828125 72.23046875 C-18.23828125 73.44921875 -18.23828125 73.44921875 -20.5703125 74.73046875 C-21.32699219 75.15328125 -22.08367188 75.57609375 -22.86328125 76.01171875 C-28.30306923 78.64305805 -32.70704498 79.46963417 -38.7578125 79.35546875 C-40.00304687 79.33742188 -41.24828125 79.319375 -42.53125 79.30078125 C-43.47226562 79.27757813 -44.41328125 79.254375 -45.3828125 79.23046875 C-45.3828125 78.90046875 -45.3828125 78.57046875 -45.3828125 78.23046875 C-44.34382813 78.14410156 -43.30484375 78.05773437 -42.234375 77.96875 C-32.19928533 77.01101935 -23.18809023 75.70252728 -16.0078125 67.91796875 C-15.10335529 66.71031282 -14.22703544 65.48097398 -13.3828125 64.23046875 C-12.9703125 63.68132812 -12.5578125 63.1321875 -12.1328125 62.56640625 C-7.90520779 55.90205716 -9.05209632 47.80019476 -9.3828125 40.23046875 C-10.3728125 39.73546875 -10.3728125 39.73546875 -11.3828125 39.23046875 C-12.20703125 37.515625 -12.20703125 37.515625 -13.0703125 35.29296875 C-15.06558776 30.5720722 -17.73448875 26.68194067 -20.796875 22.58984375 C-24.08975566 17.69107547 -24.73767412 14.12337264 -23.92578125 8.3828125 C-22.96084645 4.5577832 -20.92961066 2.20630115 -17.63671875 0.12890625 C-12.27862568 -2.00690208 -5.44399135 -1.75814147 0 0 Z " fill="#E5F2F2" transform="translate(67.3828125,27.76953125)"/>
<path d="M0 0 C4.62 0 9.24 0 14 0 C13.17825842 3.28696632 12.10467593 6.06681774 10.76171875 9.15234375 C8.36094921 14.97574884 7.535558 20.78470853 7 27 C5.23086176 27.22226864 3.45955629 27.42733873 1.6875 27.625 C0.70136719 27.74101563 -0.28476563 27.85703125 -1.30078125 27.9765625 C-4 28 -4 28 -7 26 C-6.67 24.68 -6.34 23.36 -6 22 C-5.34 22 -4.68 22 -4 22 C-3.87882813 21.45472656 -3.75765625 20.90945312 -3.6328125 20.34765625 C-3.46523437 19.59355469 -3.29765625 18.83945313 -3.125 18.0625 C-2.94453125 17.24523437 -2.7640625 16.42796875 -2.578125 15.5859375 C-2.20157489 13.90163905 -1.8165741 12.21920055 -1.421875 10.5390625 C-1.24140625 9.76304688 -1.0609375 8.98703125 -0.875 8.1875 C-0.70742187 7.47980469 -0.53984375 6.77210937 -0.3671875 6.04296875 C0.11793186 3.68979788 0.11793186 3.68979788 0 0 Z " fill="#157274" transform="translate(142,78)"/>
<path d="M0 0 C6.48423668 -0.53637987 11.7461991 -0.67191072 17.15234375 3.2578125 C24.54382288 10.22736787 28.87026065 18.98972866 29.46875 29.12109375 C29.50212223 30.89294553 29.51208487 32.66537517 29.5 34.4375 C29.49577026 35.82074463 29.49577026 35.82074463 29.49145508 37.23193359 C29.30656421 44.99185125 27.81307789 51.01725354 22.33203125 56.7421875 C21.89246094 57.15726563 21.45289062 57.57234375 21 58 C20.01 57.01 19.02 56.02 18 55 C18.99 55 19.98 55 21 55 C21.433125 53.88625 21.433125 53.88625 21.875 52.75 C23 50 23 50 24.0625 48.0625 C28.22424837 38.90665358 26.50657197 26.76552612 23.1171875 17.6171875 C19.99588983 10.17031196 16.91546809 5.89658293 9.328125 2.78125 C6.19339382 1.72932679 3.29030765 1.28002618 0 1 C0 0.67 0 0.34 0 0 Z " fill="#D2E9EA" transform="translate(54,27)"/>
<path d="M0 0 C0.33 0 0.66 0 1 0 C1 5.94 1 11.88 1 18 C-2.96 18 -6.92 18 -11 18 C-11.33 15.03 -11.66 12.06 -12 9 C-11.38511719 8.60167969 -10.77023438 8.20335938 -10.13671875 7.79296875 C-9.32847656 7.26316406 -8.52023438 6.73335938 -7.6875 6.1875 C-6.88699219 5.66542969 -6.08648437 5.14335938 -5.26171875 4.60546875 C-3.27556687 3.19560965 -1.69273299 1.73440027 0 0 Z " fill="#107072" transform="translate(52,98)"/>
<path d="M0 0 C2.49872236 3.74808354 2.14884071 5.35772991 1.52734375 9.65234375 C0.54995925 14.00351476 -0.93617985 17.5261042 -4.65185547 20.1796875 C-10.09435311 23.06224206 -14.4726701 23.47425177 -20.5625 23.1875 C-22.18865347 23.13454345 -23.81496752 23.08628794 -25.44140625 23.04296875 C-26.21363525 23.02097412 -26.98586426 22.99897949 -27.78149414 22.97631836 C-30.29230812 22.95288833 -30.29230812 22.95288833 -33.90625 23.578125 C-37.67268791 24.09173017 -39.02828413 23.2512999 -42 21 C-41.67 20.34 -41.34 19.68 -41 19 C-36.545 19.99 -36.545 19.99 -32 21 C-31.67 20.01 -31.34 19.02 -31 18 C-30.01 18.33 -29.02 18.66 -28 19 C-28 19.66 -28 20.32 -28 21 C-25.12285987 20.9396826 -22.25069146 20.85254404 -19.375 20.75 C-18.16263672 20.72873047 -18.16263672 20.72873047 -16.92578125 20.70703125 C-11.51923725 20.48725304 -8.28579536 19.59026443 -4 16 C-0.57233441 11.03579466 -0.33582523 5.85957131 0 0 Z " fill="#DEF0F0" transform="translate(235,82)"/>
<path d="M0 0 C0.33 0 0.66 0 1 0 C1.09966571 6.12390433 0.9701883 11.93632313 0 18 C-0.03545297 19.66628955 -0.05048188 21.33409803 0 23 C-0.66 22.34 -1.32 21.68 -2 21 C-2.66 22.65 -3.32 24.3 -4 26 C-4.66 26 -5.32 26 -6 26 C-6 26.66 -6 27.32 -6 28 C-6.66 28 -7.32 28 -8 28 C-8.33 28.66 -8.66 29.32 -9 30 C-10.85546875 31.21875 -10.85546875 31.21875 -13.1875 32.5 C-14.32251953 33.13421875 -14.32251953 33.13421875 -15.48046875 33.78125 C-20.92025673 36.4125893 -25.32423248 37.23916542 -31.375 37.125 C-32.62023437 37.10695312 -33.86546875 37.08890625 -35.1484375 37.0703125 C-36.08945312 37.04710937 -37.03046875 37.02390625 -38 37 C-38 36.67 -38 36.34 -38 36 C-36.96101563 35.91363281 -35.92203125 35.82726562 -34.8515625 35.73828125 C-24.81647283 34.7805506 -15.80527773 33.47205853 -8.625 25.6875 C-7.71479119 24.4841731 -6.83814741 23.25458543 -6 22 C-5.61070313 21.42765625 -5.22140625 20.8553125 -4.8203125 20.265625 C-1.18331067 14.05351968 -0.7514695 7.04008271 0 0 Z " fill="#ECF5F5" transform="translate(60,70)"/>
<path d="M0 0 C4.62 0 9.24 0 14 0 C13.17825842 3.28696632 12.10467593 6.06681774 10.76171875 9.15234375 C8.36094921 14.97574884 7.535558 20.78470853 7 27 C5.23086176 27.22226864 3.45955629 27.42733873 1.6875 27.625 C0.70136719 27.74101563 -0.28476563 27.85703125 -1.30078125 27.9765625 C-4 28 -4 28 -7 26 C-6.67 25.34 -6.34 24.68 -6 24 C-2.04 24.33 1.92 24.66 6 25 C5.78601563 24.18144531 5.57203125 23.36289063 5.3515625 22.51953125 C4.90525574 18.05150468 5.94079784 14.87948984 7.375 10.6875 C7.72691406 9.59598633 7.72691406 9.59598633 8.0859375 8.48242188 C9.82804915 3.17195085 9.82804915 3.17195085 11 2 C7.7 1.67 4.4 1.34 1 1 C0.67 1.99 0.34 2.98 0 4 C0 2.68 0 1.36 0 0 Z " fill="#BBDBDB" transform="translate(142,78)"/>
<path d="M0 0 C2.78022868 1.0952416 5.46082382 2.22869242 8.140625 3.55859375 C12.34260629 5.36086142 16.17254722 5.37684679 20.6875 5.25 C21.43322266 5.24484375 22.17894531 5.2396875 22.94726562 5.234375 C26.4535454 5.18432997 29.6267471 4.93475119 33 4 C32.25 5.9375 32.25 5.9375 31 8 C24.52454708 10.4011847 15.37769513 10.05158628 8.86328125 8.0234375 C4.52370935 5.95818139 1.84962462 4.58002288 0 0 Z " fill="#49A8A9" transform="translate(7,97)"/>
<path d="M0 0 C1.9375 0.625 1.9375 0.625 4 2 C4.9375 4.9375 4.9375 4.9375 5 8 C3.21220342 10.59230504 2.03997185 10.98667605 -1 12 C-1.84565431 14.16806863 -1.84565431 14.16806863 -2.375 16.75 C-3.6955759 21.43569823 -4.78762997 24.22162828 -9 27 C-14.26458607 28.30096855 -19.13553241 28.75653163 -24 26 C-23.67 25.34 -23.34 24.68 -23 24 C-22.67 24.33 -22.34 24.66 -22 25 C-20.39836084 25.09919077 -18.79220082 25.12969898 -17.1875 25.125 C-16.31480469 25.12757812 -15.44210938 25.13015625 -14.54296875 25.1328125 C-11.17792893 24.97624285 -11.17792893 24.97624285 -8 24 C-6.92916576 22.12422796 -6.92916576 22.12422796 -6.375 19.8125 C-6.13910156 19.00554687 -5.90320313 18.19859375 -5.66015625 17.3671875 C-5.44230469 16.58601563 -5.22445312 15.80484375 -5 15 C-4 12 -4 12 -3 9 C-1.35 8.67 0.3 8.34 2 8 C2 6.35 2 4.7 2 3 C1.34 2.67 0.68 2.34 0 2 C0 1.34 0 0.68 0 0 Z " fill="#D4EAEA" transform="translate(136,77)"/>
<path d="M0 0 C1.84401942 1.56447393 2.88425566 2.5283418 3.46875 4.91015625 C3.55428217 10.8011847 1.94933531 14.47065246 -0.90234375 19.5703125 C-2.06275439 22.1389083 -2.23056435 23.65679894 -2.0625 26.4375 C-2 30 -2 30 -3.625 32.0625 C-6.79711635 33.31465119 -8.75953278 32.93613497 -12 32 C-12.33 31.34 -12.66 30.68 -13 30 C-10.69 30 -8.38 30 -6 30 C-5.01 27.69 -4.02 25.38 -3 23 C-6.96 23.495 -6.96 23.495 -11 24 C-10 22 -10 22 -6.625 20.25 C-2.78362365 18.07295714 -1.32049835 16.34987693 0 12 C0.22585508 7.98593919 0.17541933 4.01515345 0 0 Z " fill="#C4E2E2" transform="translate(106,80)"/>
<path d="M0 0 C0.33 0.99 0.66 1.98 1 3 C1.66 3 2.32 3 3 3 C4.625 5.5 4.625 5.5 6 8 C3.03 8 0.06 8 -3 8 C-3 14.27 -3 20.54 -3 27 C-7.62 27 -12.24 27 -17 27 C-17 26.67 -17 26.34 -17 26 C-13.04 26 -9.08 26 -5 26 C-5.01160156 24.72382812 -5.02320313 23.44765625 -5.03515625 22.1328125 C-5.04453417 20.46354313 -5.05363437 18.79427217 -5.0625 17.125 C-5.07087891 16.28324219 -5.07925781 15.44148438 -5.08789062 14.57421875 C-5.09111328 13.76855469 -5.09433594 12.96289062 -5.09765625 12.1328125 C-5.10289307 11.38918457 -5.10812988 10.64555664 -5.11352539 9.87939453 C-5 8 -5 8 -4 6 C-3.34 6 -2.68 6 -2 6 C-1.34 4.02 -0.68 2.04 0 0 Z " fill="#DCEBEB" transform="translate(58,90)"/>
<path d="M0 0 C1.875 0.875 1.875 0.875 3.875 2.875 C4.25 5.3125 4.25 5.3125 3.875 7.875 C2.1875 9.75 2.1875 9.75 -0.125 10.875 C-2.875 10.5625 -2.875 10.5625 -5.125 9.875 C-5.875 7.125 -5.875 7.125 -6.125 3.875 C-3.3076087 -0.19456522 -3.3076087 -0.19456522 0 0 Z " fill="#0C6D6F" transform="translate(70.125,85.125)"/>
<path d="M0 0 C3.82393091 0.26678588 5.79782767 0.85374768 8.9375 3.125 C11 6 11 6 10.9375 9.6875 C10 13 10 13 8 15 C1.03980504 15.55239643 1.03980504 15.55239643 -2 13.9375 C-3.58904125 10.85873258 -3.35773097 8.39844421 -3 5 C-1.5 2.625 -1.5 2.625 0 1 C0 0.67 0 0.34 0 0 Z M3 2 C3 2.66 3 3.32 3 4 C2.01 4.33 1.02 4.66 0 5 C-1.14203952 9.09542781 -1.14203952 9.09542781 0.125 12.9375 C2.01433678 14.2373322 2.01433678 14.2373322 4.5625 13.8125 C7.14441272 13.15372967 7.14441272 13.15372967 9 11 C9.50059916 8.58517587 9.50059916 8.58517587 9 6 C7.2287382 3.64477775 7.2287382 3.64477775 5 2 C4.34 2 3.68 2 3 2 Z " fill="#EDF5F5" transform="translate(65,82)"/>
<path d="M0 0 C0.66 0 1.32 0 2 0 C3.31376014 6.43742467 2.55745901 10.81091726 -0.3125 16.6875 C-2.97093019 20.33053396 -5.71990929 22.5733031 -10 24 C-11.51766539 24.11632729 -13.0404346 24.17496239 -14.5625 24.1875 C-15.74005859 24.20876953 -15.74005859 24.20876953 -16.94140625 24.23046875 C-19 24 -19 24 -21 22 C-20.26394531 21.96261719 -19.52789062 21.92523438 -18.76953125 21.88671875 C-11.42439383 21.41024006 -11.42439383 21.41024006 -5 18 C-4.34 18 -3.68 18 -3 18 C-1.13845701 13.40819395 0.12722441 9.79627991 0.0625 4.8125 C0.05347656 3.91144531 0.04445313 3.01039062 0.03515625 2.08203125 C0.02355469 1.39496094 0.01195312 0.70789063 0 0 Z " fill="#D0E8E8" transform="translate(262,81)"/>
<path d="M0 0 C0.66 0 1.32 0 2 0 C3.59842113 2.00995492 5.05870765 4.00680677 6.5 6.125 C6.90347656 6.69476563 7.30695312 7.26453125 7.72265625 7.8515625 C11.75980686 13.71409143 13.27186998 18.67837113 13.125 25.875 C13.10695313 27.02742188 13.08890625 28.17984375 13.0703125 29.3671875 C13.03550781 30.67042969 13.03550781 30.67042969 13 32 C12.67 32 12.34 32 12 32 C11.95101562 31.14535156 11.90203125 30.29070312 11.8515625 29.41015625 C11.77679688 28.30542969 11.70203125 27.20070313 11.625 26.0625 C11.55539063 24.96035156 11.48578125 23.85820313 11.4140625 22.72265625 C11.27742188 21.82417969 11.14078125 20.92570312 11 20 C10.34 19.67 9.68 19.34 9 19 C8.10546875 17.1796875 8.10546875 17.1796875 7.1875 14.875 C5.82472309 11.64547584 4.36076916 8.92341351 2.25 6.125 C0 3 0 3 0 0 Z " fill="#9FD1D1" transform="translate(47,48)"/>
<path d="M0 0 C0.99 0 1.98 0 3 0 C3.33 1.98 3.66 3.96 4 6 C3.34 5.01 2.68 4.02 2 3 C1.67 5.64 1.34 8.28 1 11 C-0.76913824 11.22226864 -2.54044371 11.42733873 -4.3125 11.625 C-5.79169922 11.79902344 -5.79169922 11.79902344 -7.30078125 11.9765625 C-10 12 -10 12 -13 10 C-12.67 9.34 -12.34 8.68 -12 8 C-8.04 8.33 -4.08 8.66 0 9 C-0.185625 8.071875 -0.37125 7.14375 -0.5625 6.1875 C-1 3 -1 3 0 0 Z " fill="#D8EDEC" transform="translate(189,94)"/>
<path d="M0 0 C1.32 0 2.64 0 4 0 C4.75 1.6875 4.75 1.6875 5 4 C3.24626427 6.83295772 1.63493006 8.6009011 -1.1875 10.375 C-5.16268427 11.25837428 -9.07540505 11.14885 -13 10 C-13.66 9.01 -14.32 8.02 -15 7 C-14.01 7.33 -13.02 7.66 -12 8 C-7.38549017 8.52712565 -4.04026314 8.62849232 0 6.1875 C2.19941932 4.07967048 2.19941932 4.07967048 3 1 C2.01 0.67 1.02 0.34 0 0 Z " fill="#D5EBEB" transform="translate(283,94)"/>
<path d="M0 0 C3.3 0 6.6 0 10 0 C10 3 10 3 8.60546875 5.29296875 C6.82818882 8.28969623 6.09384809 10.92665826 5.3125 14.3125 C5.06113281 15.38113281 4.80976562 16.44976562 4.55078125 17.55078125 C4.36902344 18.35902344 4.18726562 19.16726562 4 20 C3.67 20 3.34 20 3 20 C2.62835179 14.17751144 3.62382055 9.35185372 6 4 C6.66 3.34 7.32 2.68 8 2 C5.36 1.67 2.72 1.34 0 1 C0 0.67 0 0.34 0 0 Z " fill="#C5E1E1" transform="translate(117,78)"/>
<path d="M0 0 C6.87479938 -0.56868745 11.70910098 -0.33928833 17.5390625 3.515625 C19.2770537 5.28149842 19.61786268 6.58323965 20 9 C17 8 17 8 15.75 6.625 C11.38085148 2.56793351 5.75023866 1.58675905 0 1 C0 0.67 0 0.34 0 0 Z " fill="#95CCCD" transform="translate(54,27)"/>
<path d="M0 0 C4.62 0 9.24 0 14 0 C13.67 1.32 13.34 2.64 13 4 C12.65939189 5.66519519 12.32441604 7.33157466 12 9 C11.01 9 10.02 9 9 9 C9.875 3.125 9.875 3.125 11 2 C7.7 1.67 4.4 1.34 1 1 C1 3.31 1 5.62 1 8 C0.67 8 0.34 8 0 8 C0 5.36 0 2.72 0 0 Z " fill="#C3DEDE" transform="translate(183,78)"/>
<path d="M0 0 C0.33 0 0.66 0 1 0 C1 2.31 1 4.62 1 7 C-0.76913824 7.22226864 -2.54044371 7.42733873 -4.3125 7.625 C-5.29863281 7.74101563 -6.28476563 7.85703125 -7.30078125 7.9765625 C-10 8 -10 8 -13 6 C-12.67 5.34 -12.34 4.68 -12 4 C-8.04 4.33 -4.08 4.66 0 5 C0 3.35 0 1.7 0 0 Z " fill="#E8F7F7" transform="translate(148,98)"/>
<path d="M0 0 C1.67013418 0.65793165 3.3357865 1.32723284 5 2 C5.61230469 2.24105469 6.22460938 2.48210937 6.85546875 2.73046875 C11.88712807 4.77425614 11.88712807 4.77425614 13 7 C13.99 7.66 14.98 8.32 16 9 C9.51536373 8.72405803 4.92925623 6.21389931 0 2 C0 1.34 0 0.68 0 0 Z " fill="#86C5C6" transform="translate(7,97)"/>
<path d="M0 0 C0.99 0.33 1.98 0.66 3 1 C2.071875 2.1446875 2.071875 2.1446875 1.125 3.3125 C-1.82205131 7.68588219 -2.56805704 12.8166845 -3 18 C-2.67 18.66 -2.34 19.32 -2 20 C-2.99 19.67 -3.98 19.34 -5 19 C-5.50724362 12.15221113 -3.99098933 7.16215874 -1 1 C-0.67 0.67 -0.34 0.34 0 0 Z " fill="#C5E2E1" transform="translate(251,81)"/>
<path d="M0 0 C0.66 0.33 1.32 0.66 2 1 C0.53361938 4.42155477 -0.99409351 6.76483876 -4 9 C-6.99920828 9.75523542 -9.90779041 10.17084031 -13 10 C-13.99 9.34 -14.98 8.68 -16 8 C-15.12988281 7.96132812 -15.12988281 7.96132812 -14.2421875 7.921875 C-8.79732218 7.52653824 -5.29484053 6.65061445 -1 3 C-0.67 2.01 -0.34 1.02 0 0 Z " fill="#DEF1F0" transform="translate(175,95)"/>
<path d="M0 0 C2.49708948 3.74563422 2.14212944 5.34903233 1.5390625 9.640625 C0.6682988 13.45179368 -0.64150476 15.85533969 -3 19 C-5.75 19.9375 -5.75 19.9375 -8 20 C-7.05125 19.113125 -6.1025 18.22625 -5.125 17.3125 C-0.75696766 12.32634987 -0.55688443 6.38496799 0 0 Z " fill="#C4E1E1" transform="translate(235,82)"/>
<path d="M0 0 C0.99 0.33 1.98 0.66 3 1 C3.75 3.25 3.75 3.25 4 6 C2.4375 8.375 2.4375 8.375 0 10 C-3.25 9.75 -3.25 9.75 -6 9 C-6.33 10.32 -6.66 11.64 -7 13 C-7.33 11.68 -7.66 10.36 -8 9 C-5.03312999 7.35173889 -2.34373475 6.55728913 1 6 C0.67 4.02 0.34 2.04 0 0 Z " fill="#D9EEED" transform="translate(206,78)"/>
<path d="M0 0 C0.33 0 0.66 0 1 0 C1.74737188 5.97897503 -0.6768102 9.32379721 -4 14 C-5.32 13.01 -6.64 12.02 -8 11 C-7.01 11 -6.02 11 -5 11 C-4.731875 10.29875 -4.46375 9.5975 -4.1875 8.875 C-2.9318551 5.8350176 -1.49764877 2.9272226 0 0 Z " fill="#DDEFEF" transform="translate(80,71)"/>
<path d="M0 0 C-1.32 0.33 -2.64 0.66 -4 1 C-4.62314211 7.19863615 -4.62314211 7.19863615 -2 12.5625 C-1.34 13.036875 -0.68 13.51125 0 14 C-2.58148508 13.64393309 -3.82045747 13.16671807 -5.75 11.375 C-7.50166972 8.04682754 -7.4711674 5.70202957 -7 2 C-4.37226805 -0.89956629 -3.79438356 -1.26479452 0 0 Z " fill="#55ADAE" transform="translate(67,84)"/>
<path d="M0 0 C0.99 0.33 1.98 0.66 3 1 C2.01 1.33 1.02 1.66 0 2 C-0.96078554 4.0906666 -0.96078554 4.0906666 -1.5625 6.625 C-1.80742188 7.5221875 -2.05234375 8.419375 -2.3046875 9.34375 C-2.53414063 10.2203125 -2.76359375 11.096875 -3 12 C-3.3924426 13.3759716 -3.78772916 14.75113964 -4.1875 16.125 C-4.455625 17.07375 -4.72375 18.0225 -5 19 C-5.33 19 -5.66 19 -6 19 C-6.5535024 12.63472245 -4.84929408 7.68818929 -2 2 C-1.34 1.34 -0.68 0.68 0 0 Z " fill="#CEE7E7" transform="translate(96,81)"/>
<path d="M0 0 C1.32 0.33 2.64 0.66 4 1 C3.236875 1.639375 2.47375 2.27875 1.6875 2.9375 C-1.75063236 6.31702783 -2.77913674 10.44409563 -4 15 C-4.33 15 -4.66 15 -5 15 C-4.7242265 8.7950962 -3.89359206 4.89839001 0 0 Z " fill="#C3E1E1" transform="translate(279,82)"/>
<path d="M0 0 C0.33 0 0.66 0 1 0 C1.13277344 0.68707031 1.26554687 1.37414063 1.40234375 2.08203125 C1.57894531 2.98308594 1.75554688 3.88414063 1.9375 4.8125 C2.11152344 5.70582031 2.28554688 6.59914063 2.46484375 7.51953125 C2.97741153 10.11397171 2.97741153 10.11397171 4 13 C3.34 13.66 2.68 14.32 2 15 C-0.20155845 10.4134199 -1.48320315 7.19443385 -1 2 C-0.67 1.34 -0.34 0.68 0 0 Z " fill="#CEE7E7" transform="translate(44,35)"/>
<path d="M0 0 C0.33 0 0.66 0 1 0 C1.48428405 7.38533178 1.48428405 7.38533178 -0.625 10.0625 C-3.79711635 11.31465119 -5.75953278 10.93613497 -9 10 C-9.33 9.34 -9.66 8.68 -10 8 C-8.88625 8.061875 -7.7725 8.12375 -6.625 8.1875 C-5.42875 8.125625 -4.2325 8.06375 -3 8 C-1.0549 5.08235 -0.54723683 3.37462715 0 0 Z " fill="#D7ECEC" transform="translate(103,102)"/>
<path d="M0 0 C5.75 0.75 5.75 0.75 8 3 C5 3 5 3 3 2 C3 2.66 3 3.32 3 4 C2.02246356 5.02196992 1.0194119 6.01979625 0 7 C-0.66 7.99 -1.32 8.98 -2 10 C-2.125 6.625 -2.125 6.625 -2 3 C-1.34 2.34 -0.68 1.68 0 1 C0 0.67 0 0.34 0 0 Z " fill="#D5E7E7" transform="translate(65,82)"/>
<path d="M0 0 C0.99 0.33 1.98 0.66 3 1 C2.32829194 4.8063457 1.27253436 8.35206816 0 12 C-1.65 11.67 -3.3 11.34 -5 11 C-4.01 10.34 -3.02 9.68 -2 9 C-0.32358826 5.64717651 0 3.83880578 0 0 Z " fill="#DAEEED" transform="translate(290,78)"/>
<path d="M0 0 C6.27808989 7.74297753 6.27808989 7.74297753 6 14 C3.3522659 12.67613295 3.0592562 11.36742791 1.875 8.6875 C1.52179688 7.90761719 1.16859375 7.12773438 0.8046875 6.32421875 C0 4 0 4 0 0 Z " fill="#B3DADB" transform="translate(74,34)"/>
<path d="M0 0 C2.0625 0.4375 2.0625 0.4375 4 1 C3.01 1.33 2.02 1.66 1 2 C0.01312702 3.6925911 0.01312702 3.6925911 -0.625 5.75 C-0.87121094 6.46671875 -1.11742187 7.1834375 -1.37109375 7.921875 C-2.0791494 10.26153715 -2.62257545 12.58448288 -3 15 C-3.33 15 -3.66 15 -4 15 C-4.34650743 9.34037856 -3.48055609 5.96111218 -1 1 C-0.67 0.67 -0.34 0.34 0 0 Z " fill="#DBF0EF" transform="translate(167,83)"/>
<path d="M0 0 C0.66 0 1.32 0 2 0 C3.2890625 1.75 3.2890625 1.75 4.625 4 C5.07101563 4.7425 5.51703125 5.485 5.9765625 6.25 C6.31429687 6.8275 6.65203125 7.405 7 8 C6.34 8.66 5.68 9.32 5 10 C4.15801693 8.90241493 3.32669329 7.79664683 2.5 6.6875 C2.0359375 6.07261719 1.571875 5.45773438 1.09375 4.82421875 C0 3 0 3 0 0 Z " fill="#ADD7D8" transform="translate(47,48)"/>
<path d="M0 0 C1.20628008 2.33214148 2.1654738 4.49642139 3 7 C1.02 7 -0.96 7 -3 7 C-2.01 4.69 -1.02 2.38 0 0 Z " fill="#107072" transform="translate(58,90)"/>
<path d="M0 0 C1.79133978 -0.05391993 3.58313899 -0.09275571 5.375 -0.125 C6.37273438 -0.14820312 7.37046875 -0.17140625 8.3984375 -0.1953125 C11 0 11 0 13 2 C9.72814447 3.07310858 7.57052408 2.89263102 4.25 2.0625 C3.05117188 1.77052734 3.05117188 1.77052734 1.828125 1.47265625 C1.22484375 1.31667969 0.6215625 1.16070313 0 1 C0 0.67 0 0.34 0 0 Z " fill="#7FC1C2" transform="translate(54,27)"/>
<path d="M0 0 C4.75 1.875 4.75 1.875 7 3 C6.67 3.99 6.34 4.98 6 6 C3.96166576 4.7260411 1.96147874 3.38938077 0 2 C0 1.34 0 0.68 0 0 Z " fill="#8FC9CA" transform="translate(7,97)"/>
<path d="M0 0 C0.33 0.66 0.66 1.32 1 2 C0.67 2.66 0.34 3.32 0 4 C-0.66 4 -1.32 4 -2 4 C-2.33 4.66 -2.66 5.32 -3 6 C-3.99 6.33 -4.98 6.66 -6 7 C-4.60667426 3.63279613 -3.0210714 2.0140476 0 0 Z " fill="#F8FBFB" transform="translate(54,94)"/>
</svg>
