<?xml version="1.0" standalone="no"?>
<!DOCTYPE svg PUBLIC "-//W3C//DTD SVG 20010904//EN"
 "http://www.w3.org/TR/2001/REC-SVG-20010904/DTD/svg10.dtd">
<svg version="1.0" xmlns="http://www.w3.org/2000/svg"
 width="512.000000pt" height="512.000000pt" viewBox="0 0 512.000000 512.000000"
 preserveAspectRatio="xMidYMid meet">

<g transform="translate(0.000000,512.000000) scale(0.100000,-0.100000)"
fill="#000000" stroke="none">
<path d="M1503 5106 c-182 -45 -334 -202 -372 -384 -7 -32 -11 -171 -11 -347
l0 -295 1000 0 1000 0 0 308 c0 244 -3 320 -15 367 -38 147 -126 260 -253 322
l-76 38 -610 2 c-465 1 -623 -1 -663 -11z m707 -386 l0 -80 80 0 80 0 0 -80 0
-80 -80 0 -80 0 0 -80 0 -80 -80 0 -80 0 0 80 0 80 -80 0 -80 0 0 80 0 80 80
0 80 0 0 80 0 80 80 0 80 0 0 -80z"/>
<path d="M1123 3523 c3 -366 5 -404 25 -478 116 -441 475 -737 922 -762 461
-25 888 304 1017 782 26 99 27 105 31 478 l3 377 -1001 0 -1001 0 4 -397z"/>
<path d="M3229 2426 c-131 -47 -199 -150 -186 -286 7 -84 58 -164 131 -207 10
-6 11 -23 6 -68 -17 -137 24 -330 97 -455 48 -83 190 -226 268 -271 255 -147
540 -146 793 2 80 47 210 180 260 264 78 134 119 319 102 460 -4 33 -7 60 -6
61 33 17 89 76 112 116 25 46 29 63 29 128 0 58 -6 85 -22 116 -46 86 -126
142 -217 151 -66 7 -122 -9 -185 -51 l-50 -34 -83 29 c-224 77 -462 77 -678 0
l-83 -29 -49 34 c-79 54 -162 68 -239 40z m941 -826 l0 -80 -75 0 -75 0 0 -75
0 -75 -80 0 -80 0 0 75 0 75 -75 0 -75 0 0 80 0 80 230 0 230 0 0 -80z"/>
<path d="M1875 2109 c-44 -5 -131 -18 -194 -31 -110 -21 -114 -23 -127 -53
-21 -51 -54 -228 -54 -292 l0 -58 53 -13 c135 -31 272 -139 335 -263 56 -111
62 -163 62 -564 0 -329 -2 -363 -19 -400 -35 -76 -102 -115 -196 -115 l-55 0
0 80 0 80 43 0 c24 0 48 5 55 12 15 15 17 649 2 729 -22 117 -92 209 -198 261
-61 30 -75 33 -157 33 -78 -1 -98 -4 -149 -29 -76 -37 -140 -101 -174 -174
l-27 -57 0 -385 0 -385 48 -3 47 -3 0 -81 0 -80 -69 4 c-83 4 -140 37 -171 98
-19 37 -20 57 -20 427 0 230 5 406 11 433 40 174 200 337 373 381 l46 11 0 62
c0 35 7 104 16 155 9 51 14 94 12 96 -2 2 -48 -15 -103 -39 -397 -170 -764
-501 -985 -886 -161 -283 -258 -609 -276 -939 l-7 -121 1387 0 1388 0 -37 42
c-77 90 -135 268 -135 415 0 137 71 263 181 323 15 8 47 44 70 80 79 123 179
219 304 293 39 22 72 42 73 43 2 1 -14 26 -36 56 -56 73 -117 198 -142 289
-21 79 -41 248 -33 280 3 12 -10 36 -36 68 -37 44 -54 55 -145 90 -302 116
-646 163 -961 130z"/>
<path d="M4480 1043 c-63 -49 -183 -108 -287 -140 -80 -25 -102 -27 -253 -27
-151 0 -172 2 -253 27 -100 31 -186 72 -270 129 l-59 40 -45 -17 c-56 -22
-178 -103 -221 -147 l-32 -34 107 0 c147 1 198 -17 279 -98 69 -69 109 -145
149 -282 50 -174 41 -301 -31 -432 l-35 -64 358 5 c349 4 433 11 433 38 0 5
-9 28 -20 49 -56 110 -62 246 -16 402 40 137 82 215 150 284 81 81 132 99 277
99 83 0 105 3 102 13 -10 25 -138 122 -208 157 -39 19 -73 35 -76 34 -2 0 -24
-16 -49 -36z"/>
<path d="M3062 705 c-263 -50 -334 -138 -288 -358 23 -115 51 -170 112 -226
132 -121 320 -154 444 -78 67 40 105 94 126 177 20 79 14 138 -25 260 -34 107
-79 181 -128 211 -44 28 -141 33 -241 14z"/>
<path d="M4619 711 c-76 -25 -125 -91 -169 -228 -40 -125 -46 -184 -26 -261
51 -201 242 -274 463 -177 70 32 155 113 182 175 32 75 54 195 48 264 -10 110
-71 165 -232 206 -90 23 -227 34 -266 21z"/>
</g>
</svg>
